<?xml version="1.0" standalone="no"?><!DOCTYPE svg PUBLIC "-//W3C//DTD SVG 1.1//EN" "http://www.w3.org/Graphics/SVG/1.1/DTD/svg11.dtd"><svg t="1689252322885" class="icon" viewBox="0 0 1024 1024" version="1.1" xmlns="http://www.w3.org/2000/svg" p-id="15398" xmlns:xlink="http://www.w3.org/1999/xlink" width="200" height="200"><path d="M512 85.333333a85.248 85.248 0 0 0-42.666667 11.434667l-295.594666 170.666667a85.262222 85.262222 0 0 0-42.666667 73.884444v341.333333a85.304889 85.304889 0 0 0 42.666667 73.898667L469.333333 927.203556a85.276444 85.276444 0 0 0 85.333334 0l295.594666-170.666667a85.304889 85.304889 0 0 0 42.666667-73.884445v-341.333333a85.262222 85.262222 0 0 0-42.666667-73.884444L554.666667 96.768A85.248 85.248 0 0 0 512 85.333333m0 85.333334l295.594667 170.652444v341.333333L512 853.319111l-295.594667-170.666667v-341.333333l295.580445-170.666667H512" fill="#000000" p-id="15399"></path><path d="M512 557.966222a42.609778 42.609778 0 0 1-21.632-5.902222L197.333333 379.562667a42.624 42.624 0 0 1-15.118222-58.396445 42.652444 42.652444 0 0 1 58.396445-15.132444L512 465.792l271.388444-159.758222a42.624 42.624 0 0 1 58.396445 15.132444 42.624 42.624 0 0 1-15.118222 58.396445l-293.034667 172.515555a42.609778 42.609778 0 0 1-21.632 5.888" fill="#000000" p-id="15400"></path><path d="M512 893.696a42.666667 42.666667 0 0 1-42.666667-42.666667V515.313778a42.666667 42.666667 0 1 1 85.333334 0v335.715555a42.666667 42.666667 0 0 1-42.666667 42.666667" fill="#000000" p-id="15401"></path></svg>