<?xml version="1.0" standalone="no"?><!DOCTYPE svg PUBLIC "-//W3C//DTD SVG 1.1//EN" "http://www.w3.org/Graphics/SVG/1.1/DTD/svg11.dtd"><svg t="1689147304041" class="icon" viewBox="0 0 1024 1024" version="1.1" xmlns="http://www.w3.org/2000/svg" p-id="18718" xmlns:xlink="http://www.w3.org/1999/xlink" width="200" height="200"><path d="M336.457143 336.457143m-336.457143 0a336.457143 336.457143 0 1 0 672.914286 0 336.457143 336.457143 0 1 0-672.914286 0Z" fill="#8CF6FB" p-id="18719"></path><path d="M512 1024C229.668571 1024 0 794.331429 0 512S229.668571 0 512 0s512 229.668571 512 512-229.668571 512-512 512z m0-950.857143C269.165714 73.142857 73.142857 269.165714 73.142857 512s196.022857 438.857143 438.857143 438.857143 438.857143-196.022857 438.857143-438.857143S754.834286 73.142857 512 73.142857z" fill="#3C2DCB" p-id="18720"></path><path d="M636.342857 702.171429c-20.48 0-36.571429-16.091429-36.571428-36.571429v-277.942857c0-20.48 16.091429-36.571429 36.571428-36.571429s36.571429 16.091429 36.571429 36.571429v277.942857c0 20.48-16.091429 36.571429-36.571429 36.571429z m-185.782857-11.702858c-14.628571 14.628571-38.034286 14.628571-51.2 0s-14.628571-38.034286 0-51.2L512 526.628571l-112.64-112.64c-14.628571-14.628571-14.628571-38.034286 0-51.2s38.034286-14.628571 51.2 0l137.508571 137.508572c14.628571 14.628571 14.628571 38.034286 0 51.2l-137.508571 138.971428z" fill="#D098FF" p-id="18721"></path></svg>