<?xml version="1.0" standalone="no"?><!DOCTYPE svg PUBLIC "-//W3C//DTD SVG 1.1//EN" "http://www.w3.org/Graphics/SVG/1.1/DTD/svg11.dtd"><svg t="1688980434778" class="icon" viewBox="0 0 1024 1024" version="1.1" xmlns="http://www.w3.org/2000/svg" p-id="10170" xmlns:xlink="http://www.w3.org/1999/xlink" width="200" height="200"><path d="M336.457143 336.457143m-336.457143 0a336.457143 336.457143 0 1 0 672.914286 0 336.457143 336.457143 0 1 0-672.914286 0Z" fill="#8CF6FB" p-id="10171"></path><path d="M512 1024C229.668571 1024 0 794.331429 0 512S229.668571 0 512 0s512 229.668571 512 512-229.668571 512-512 512z m0-950.857143C269.165714 73.142857 73.142857 269.165714 73.142857 512s196.022857 438.857143 438.857143 438.857143 438.857143-196.022857 438.857143-438.857143S754.834286 73.142857 512 73.142857z" fill="#3C2DCB" p-id="10172"></path><path d="M462.262857 434.468571l125.805714 77.531429-125.805714 77.531429V434.468571M408.137143 307.2c-17.554286 0-32.182857 14.628571-32.182857 32.182857v345.234286c0 17.554286 14.628571 32.182857 32.182857 32.182857 5.851429 0 11.702857-1.462857 17.554286-4.388571l280.868571-172.617143c14.628571-8.777143 20.48-29.257143 10.24-43.885715-2.925714-4.388571-5.851429-8.777143-10.24-10.24L425.691429 311.588571c-5.851429-2.925714-11.702857-4.388571-17.554286-4.388571z" fill="#D098FF" p-id="10173"></path></svg>