<?xml version="1.0" standalone="no"?><!DOCTYPE svg PUBLIC "-//W3C//DTD SVG 1.1//EN" "http://www.w3.org/Graphics/SVG/1.1/DTD/svg11.dtd"><svg t="1689147289722" class="icon" viewBox="0 0 1024 1024" version="1.1" xmlns="http://www.w3.org/2000/svg" p-id="16905" xmlns:xlink="http://www.w3.org/1999/xlink" width="200" height="200"><path d="M336.457143 336.457143m-336.457143 0a336.457143 336.457143 0 1 0 672.914286 0 336.457143 336.457143 0 1 0-672.914286 0Z" fill="#8CF6FB" p-id="16906"></path><path d="M512 1024C229.668571 1024 0 794.331429 0 512S229.668571 0 512 0s512 229.668571 512 512-229.668571 512-512 512z m0-950.857143C269.165714 73.142857 73.142857 269.165714 73.142857 512s196.022857 438.857143 438.857143 438.857143 438.857143-196.022857 438.857143-438.857143S754.834286 73.142857 512 73.142857z" fill="#3C2DCB" p-id="16907"></path><path d="M430.08 702.171429c20.48 0 35.108571-16.091429 35.108571-36.571429v-277.942857c0-19.017143-14.628571-36.571429-35.108571-36.571429-19.017143 0-36.571429 14.628571-36.571429 35.108572v279.405714c1.462857 20.48 17.554286 36.571429 36.571429 36.571429z m181.394286-11.702858c13.165714 14.628571 35.108571 14.628571 49.737143 1.462858l1.462857-1.462858c13.165714-14.628571 13.165714-36.571429 0-51.2L552.96 526.628571l109.714286-112.64c13.165714-14.628571 13.165714-36.571429 0-51.2s-35.108571-14.628571-49.737143-1.462857l-1.462857 1.462857-134.582857 137.508572c-13.165714 14.628571-13.165714 36.571429 0 51.2l134.582857 138.971428z" fill="#D098FF" p-id="16908"></path></svg>