<?xml version="1.0" standalone="no"?><!DOCTYPE svg PUBLIC "-//W3C//DTD SVG 1.1//EN" "http://www.w3.org/Graphics/SVG/1.1/DTD/svg11.dtd"><svg t="1689164409147" class="icon" viewBox="0 0 1024 1024" version="1.1" xmlns="http://www.w3.org/2000/svg" p-id="7207" xmlns:xlink="http://www.w3.org/1999/xlink" width="200" height="200"><path d="M530.282667 132.117333A42.666667 42.666667 0 0 1 554.666667 170.666667v682.666666a42.666667 42.666667 0 0 1-69.696 33.024L262.122667 704H128a42.666667 42.666667 0 0 1-42.666667-42.666667V362.666667a42.666667 42.666667 0 0 1 42.666667-42.666667h134.101333l222.869334-182.357333a42.666667 42.666667 0 0 1 45.290666-5.546667zM469.333333 260.693333l-164.970666 134.997334A42.666667 42.666667 0 0 1 277.333333 405.333333H170.666667v213.333334h106.666666a42.666667 42.666667 0 0 1 27.029334 9.642666L469.333333 763.306667V260.693333zM713.898667 376.234667l211.2 211.2-60.352 60.330666-211.2-211.2 60.373333-60.330666z" fill="#2c2c2c" p-id="7208"></path><path d="M925.098667 436.586667l-211.2 211.178666-60.330667-60.352 211.2-211.178666 60.330667 60.352z" fill="#2c2c2c" p-id="7209"></path></svg>